<?xml version="1.0" encoding="utf-8" standalone="yes"?>
<!DOCTYPE svg PUBLIC "-//W3C//DTD SVG 1.1//EN" "http://www.w3.org/Graphics/SVG/1.1/DTD/svg11.dtd">
<svg width="938" height="422" viewBox="0 0 938 422" style="fill:none;stroke:none;fill-rule:evenodd;clip-rule:evenodd;stroke-linecap:round;stroke-linejoin:round;stroke-miterlimit:1.5;" version="1.1" xmlns="http://www.w3.org/2000/svg" xmlns:xlink="http://www.w3.org/1999/xlink"><style id="fontImports">@import url("https://fonts.googleapis.com/css2?family=Roboto:wght@400;700&amp;display=block");</style><g id="items" style="isolation: isolate"><g id="blend" style="mix-blend-mode: normal"><g id="g-root-4.cu_sy_1hjfqzpcsvxu5-fill" data-item-order="-68603" transform="translate(452.999755859375, 61)"><g id="4.cu_sy_1hjfqzpcsvxu5-fill" stroke="none" fill="url(#gradient-4dd3ff-378786070)"><g><path d="M 10 10L 10 86.7208C 10 116.955 22.0107 145.952 43.3898 167.331L 62.0295 185.971L 46 202L 112 202L 112 136L 95.9706 152.029L 77.3309 133.39C 64.9536 121.012 58 104.2251 58 86.7208L 58 10L 10 10Z"></path></g></g></g><g id="g-root-3.cu_sy_13ym4bpcsxatq-fill" data-item-order="-68599" transform="translate(339, 61)"><g id="3.cu_sy_13ym4bpcsxatq-fill" stroke="none" fill="url(#gradient-bceb57-497517668)"><g><path d="M 112 10L 112 99.1663C 112 121.429 103.1626 142.781 87.4293 158.531L 59.994 185.994L 76 202L 10 202L 10.000008 136L 26.0528 152.053L 53.4697 124.608C 60.2125 117.858 64 108.7073 64 99.1663L 64 10L 112 10Z"></path></g></g></g><g id="g-root-2.cu_sy_qn5lydcsxcen-fill" data-item-order="-68595" transform="translate(513, 61)"><g id="2.cu_sy_qn5lydcsxcen-fill" stroke="none" fill="url(#gradient-64edab-240055791)"><g><path d="M 10 10L 10 34C 10 67.1371 36.8629 94 70 94L 75.9998 94L 75.9998 116.669L 122.669 70.0001L 75.9998 23.3311L 75.9998 46L 70 46C 63.3726 46 58 40.6274 58 34L 58 10L 10 10Z"></path></g></g></g><g id="g-root-1.cu_sy_m7c3txcsxd6w-fill" data-item-order="-68591" transform="translate(268.33203125, 61)"><defs><linearGradient id="gradient-4dd3ff-378786070" x2="0" y2="1"><stop offset="0" stop-color="#7fdfff"></stop><stop offset="1" stop-color="#1ac6ff"></stop></linearGradient><linearGradient id="gradient-bceb57-497517668" x2="0" y2="1"><stop offset="0" stop-color="#cff976"></stop><stop offset="1" stop-color="#a8dd38"></stop></linearGradient><linearGradient id="gradient-64edab-240055791" x2="0" y2="1"><stop offset="0" stop-color="#83fac1"></stop><stop offset="1" stop-color="#44e095"></stop></linearGradient><linearGradient id="gradient-76aaff-163240667" x2="0" y2="1"><stop offset="0" stop-color="#9cc2ff"></stop><stop offset="1" stop-color="#4f92ff"></stop></linearGradient></defs><g id="1.cu_sy_m7c3txcsxd6w-fill" stroke="none" fill="url(#gradient-76aaff-163240667)"><g><path d="M 74.6679 10L 74.6679 34C 74.6679 40.6274 69.2953 46 62.6679 46L 56.6691 46L 56.6691 23.3311L 10 70.0001L 56.669 116.669L 56.6691 94L 62.6679 94C 95.8049 94 122.668 67.1371 122.668 34L 122.668 10L 74.6679 10Z"></path></g></g></g><g id="g-root-tx_howtoadd_4njsdhcsxatm-fill" data-item-order="0" transform="translate(297, 25)"><g id="tx_howtoadd_4njsdhcsxatm-fill" stroke="none" fill="#fd6a65"><g><text style="font: bold 20px Roboto, sans-serif; white-space: pre;" font-weight="bold" font-size="20px" font-family="Roboto, sans-serif"><tspan x="14.61" y="34" dominant-baseline="ideographic">Common Agile misconceptions?</tspan></text></g></g></g><g id="g-root-tx_meetingm_v9uc11csxatk-fill" data-item-order="0" transform="translate(51, 109)"><g id="tx_meetingm_v9uc11csxatk-fill" stroke="none" fill="#4e88e7"><g><text style="font: bold 20px Roboto, sans-serif; white-space: pre;" font-weight="bold" font-size="20px" font-family="Roboto, sans-serif"><tspan x="14.75" y="34" dominant-baseline="ideographic">Meeting Management</tspan></text></g></g></g><g id="g-root-tx_agilesre_1hefyatcsxclg-fill" data-item-order="0" transform="translate(639, 109)"><g id="tx_agilesre_1hefyatcsxclg-fill" stroke="none" fill="#3cc583"><g><text style="font: bold 20px Roboto, sans-serif; white-space: pre;" font-weight="bold" font-size="20px" font-family="Roboto, sans-serif"><tspan x="12" y="34" dominant-baseline="ideographic">Agile's Relevance</tspan></text></g></g></g><g id="g-root-tx_ensureme_5uuzpcsxcli-fill" data-item-order="0" transform="translate(15, 145)"><g id="tx_ensureme_5uuzpcsxcli-fill" stroke="none" fill="#1ac6ff"><g><text style="font: 20px Roboto, sans-serif; white-space: pre;" font-size="20px" font-family="Roboto, sans-serif"><tspan x="20.89" y="34" dominant-baseline="ideographic">Ensure meetings are brief </tspan><tspan x="38.89" y="58" dominant-baseline="ideographic">and purposeful to avoid </tspan><tspan x="96.89" y="82" dominant-baseline="ideographic">productivity loss.</tspan></text></g></g></g><g id="g-root-tx_emphasiz_dffy3pcsxc0a-fill" data-item-order="0" transform="translate(639, 145)"><g id="tx_emphasiz_dffy3pcsxc0a-fill" stroke="none" fill="#1ac6ff"><g><text style="font: 20px Roboto, sans-serif; white-space: pre;" font-size="20px" font-family="Roboto, sans-serif"><tspan x="12" y="34" dominant-baseline="ideographic">Emphasize successful Agile </tspan><tspan x="12" y="58" dominant-baseline="ideographic">implementations to counter </tspan><tspan x="12" y="82" dominant-baseline="ideographic">claims of obsolescence.</tspan></text></g></g></g><g id="g-root-tx_requirem_1cxdi05csxb7k-fill" data-item-order="0" transform="translate(111, 253)"><g id="tx_requirem_1cxdi05csxb7k-fill" stroke="none" fill="#92bd39"><g><text style="font: bold 20px Roboto, sans-serif; white-space: pre;" font-weight="bold" font-size="20px" font-family="Roboto, sans-serif"><tspan x="15.23" y="34" dominant-baseline="ideographic">Requirement Gathering</tspan></text></g></g></g><g id="g-root-tx_retrospe_13zv2hxcsxczw-fill" data-item-order="0" transform="translate(567, 253)"><g id="tx_retrospe_13zv2hxcsxczw-fill" stroke="none" fill="#1eabda"><g><text style="font: bold 20px Roboto, sans-serif; white-space: pre;" font-weight="bold" font-size="20px" font-family="Roboto, sans-serif"><tspan x="12" y="34" dominant-baseline="ideographic">Retrospective Value</tspan></text></g></g></g><g id="g-root-tx_maintain_2qhk5csxbf2-fill" data-item-order="0" transform="translate(87, 289)"><g id="tx_maintain_2qhk5csxbf2-fill" stroke="none" fill="#1ac6ff"><g><text style="font: 20px Roboto, sans-serif; white-space: pre;" font-size="20px" font-family="Roboto, sans-serif"><tspan x="84.2" y="34" dominant-baseline="ideographic">Maintain balanced </tspan><tspan x="16.64" y="58" dominant-baseline="ideographic">documentation to support </tspan><tspan x="33.7" y="82" dominant-baseline="ideographic">flexibility without chaos.</tspan></text></g></g></g><g id="g-root-tx_focusona_1um5m5hcsxczu-fill" data-item-order="0" transform="translate(567, 289)"><g id="tx_focusona_1um5m5hcsxczu-fill" stroke="none" fill="#1ac6ff"><g><text style="font: 20px Roboto, sans-serif; white-space: pre;" font-size="20px" font-family="Roboto, sans-serif"><tspan x="12" y="34" dominant-baseline="ideographic">Focus on actionable </tspan><tspan x="12" y="58" dominant-baseline="ideographic">outcomes to enhance team </tspan><tspan x="12" y="82" dominant-baseline="ideographic">communication and </tspan><tspan x="12" y="106" dominant-baseline="ideographic">improvement.</tspan></text></g></g></g><g id="g-root-4.cu_sy_1hjfqzpcsvxu5-stroke" data-item-order="-68603" transform="translate(452.999755859375, 61)"><g id="4.cu_sy_1hjfqzpcsvxu5-stroke" fill="none" stroke-linecap="round" stroke-linejoin="round" stroke-miterlimit="4" stroke="#484848" stroke-width="2"><g><path d="M 10 10L 10 86.7208C 10 116.9555 22.0107 145.9518 43.3898 167.3309L 62.0295 185.9706L 46 202.0001L 112 202.0001L 112 136.0001L 95.9706 152.0295L 77.3309 133.3898C 64.9536 121.0124 58 104.2251 58 86.7208L 58 10L 10 10Z"></path></g></g></g><g id="g-root-3.cu_sy_13ym4bpcsxatq-stroke" data-item-order="-68599" transform="translate(339, 61)"><g id="3.cu_sy_13ym4bpcsxatq-stroke" fill="none" stroke-linecap="round" stroke-linejoin="round" stroke-miterlimit="4" stroke="#484848" stroke-width="2"><g><path d="M 112 10L 112 99.1663C 112 121.4287 103.1626 142.7805 87.4293 158.5309L 59.994 185.994L 76 202.0001L 10 202.0001L 10 136.0001L 26.0528 152.0529L 53.4697 124.6083C 60.2125 117.8581 64 108.7073 64 99.1663L 64 10L 112 10Z"></path></g></g></g><g id="g-root-2.cu_sy_qn5lydcsxcen-stroke" data-item-order="-68595" transform="translate(513, 61)"><g id="2.cu_sy_qn5lydcsxcen-stroke" fill="none" stroke-linecap="round" stroke-linejoin="round" stroke-miterlimit="4" stroke="#484848" stroke-width="2"><g><path d="M 10 10L 10 34C 10 67.1371 36.8629 94 70 94L 75.9998 94L 75.9998 116.6692L 122.6688 70.0001L 75.9998 23.3311L 75.9998 46L 70 46C 63.3726 46 58 40.6274 58 34L 58 10L 10 10Z"></path></g></g></g><g id="g-root-1.cu_sy_m7c3txcsxd6w-stroke" data-item-order="-68591" transform="translate(268.33203125, 61)"><g id="1.cu_sy_m7c3txcsxd6w-stroke" fill="none" stroke-linecap="round" stroke-linejoin="round" stroke-miterlimit="4" stroke="#484848" stroke-width="2"><g><path d="M 74.6679 10L 74.6679 34C 74.6679 40.6274 69.2953 46 62.6679 46L 56.6691 46L 56.6691 23.3311L 10 70.0001L 56.669 116.6692L 56.6691 94L 62.6679 94C 95.8049 94 122.6679 67.1371 122.6679 34L 122.6679 10L 74.6679 10Z"></path></g></g></g><g id="g-root-tx_howtoadd_4njsdhcsxatm-stroke" data-item-order="0" transform="translate(297, 25)"></g><g id="g-root-tx_meetingm_v9uc11csxatk-stroke" data-item-order="0" transform="translate(51, 109)"></g><g id="g-root-tx_agilesre_1hefyatcsxclg-stroke" data-item-order="0" transform="translate(639, 109)"></g><g id="g-root-tx_ensureme_5uuzpcsxcli-stroke" data-item-order="0" transform="translate(15, 145)"></g><g id="g-root-tx_emphasiz_dffy3pcsxc0a-stroke" data-item-order="0" transform="translate(639, 145)"></g><g id="g-root-tx_requirem_1cxdi05csxb7k-stroke" data-item-order="0" transform="translate(111, 253)"></g><g id="g-root-tx_retrospe_13zv2hxcsxczw-stroke" data-item-order="0" transform="translate(567, 253)"></g><g id="g-root-tx_maintain_2qhk5csxbf2-stroke" data-item-order="0" transform="translate(87, 289)"></g><g id="g-root-tx_focusona_1um5m5hcsxczu-stroke" data-item-order="0" transform="translate(567, 289)"></g></g></g></svg>