<?xml version="1.0" encoding="utf-8" standalone="yes"?>
<!DOCTYPE svg PUBLIC "-//W3C//DTD SVG 1.1//EN" "http://www.w3.org/Graphics/SVG/1.1/DTD/svg11.dtd">
<svg width="735" height="470" viewBox="0 0 735 470" style="fill:none;stroke:none;fill-rule:evenodd;clip-rule:evenodd;stroke-linecap:round;stroke-linejoin:round;stroke-miterlimit:1.5;" version="1.1" xmlns="http://www.w3.org/2000/svg" xmlns:xlink="http://www.w3.org/1999/xlink"><style id="fontImports">@import url("https://fonts.googleapis.com/css2?family=Roboto:wght@400;700&amp;display=block");</style><g id="items" style="isolation: isolate"><g id="blend" style="mix-blend-mode: normal"><g id="g-root-4.g-4_fr_1qegzer5vljwn-fill" data-item-order="-287270" transform="translate(244, 112)"><g id="4.g-4_fr_1qegzer5vljwn-fill" stroke="none" fill="url(#gradient-4dd3ff-378786070)"><g><path d="M 55.4232 76.2192L 87.9015 87.0455L 77.1488 54.7878C 90.246 45.9668 106.0217 40.8182 123 40.8182L 123 10C 97.9608 10 74.8238 18.144 56.0932 31.9277L 21.1288 20.2727L 32.7162 55.0346C 18.4551 73.9488 10 97.487 10 123L 40.8182 123C 40.8182 105.6181 46.2145 89.4965 55.4232 76.2192Z"></path></g></g></g><g id="g-root-3.g-3_fr_1lynhab5vlkox-fill" data-item-order="-287266" transform="translate(244, 225)"><g id="3.g-3_fr_1lynhab5vlkox-fill" stroke="none" fill="url(#gradient-bceb57-497517668)"><g><path d="M 87.9015 45.9545L 77.1488 78.2122C 90.246 87.0332 106.0217 92.1818 123 92.1818L 123 123C 97.9608 123 74.8238 114.856 56.0932 101.0723L 21.1288 112.727L 32.7162 77.9654C 18.4551 59.0512 10 35.513 10 10L 40.8182 10C 40.8182 27.3819 46.2145 43.5035 55.4232 56.7808L 87.9015 45.9545Z"></path></g></g></g><g id="g-root-2.g-2_fr_18ntg035vlj43-fill" data-item-order="-287262" transform="translate(357, 225)"><g id="2.g-2_fr_18ntg035vlj43-fill" stroke="none" fill="url(#gradient-76aaff-163240667)"><g><path d="M 113.583 112.727L 101.4644 76.3708C 115.01 57.7357 123 34.8009 123 10L 92.1818 10C 92.1818 27.1799 86.9102 43.1285 77.8964 56.3166L 46.8106 45.9545L 57.2437 77.2534C 43.879 86.659 27.5845 92.1818 10 92.1818L 10 123C 35.2766 123 58.6148 114.701 77.4384 100.6788L 113.583 112.727Z"></path></g></g></g><g id="g-root-1.g-1_fr_zs6fr75vljwt-fill" data-item-order="-287258" transform="translate(357, 112)"><defs><linearGradient id="gradient-4dd3ff-378786070" x2="0" y2="1"><stop offset="0" stop-color="#7fdfff"></stop><stop offset="1" stop-color="#1ac6ff"></stop></linearGradient><linearGradient id="gradient-bceb57-497517668" x2="0" y2="1"><stop offset="0" stop-color="#cff976"></stop><stop offset="1" stop-color="#a8dd38"></stop></linearGradient><linearGradient id="gradient-76aaff-163240667" x2="0" y2="1"><stop offset="0" stop-color="#9cc2ff"></stop><stop offset="1" stop-color="#4f92ff"></stop></linearGradient><linearGradient id="gradient-64edab-240055791" x2="0" y2="1"><stop offset="0" stop-color="#83fac1"></stop><stop offset="1" stop-color="#44e095"></stop></linearGradient></defs><g id="1.g-1_fr_zs6fr75vljwt-fill" stroke="none" fill="url(#gradient-64edab-240055791)"><g><path d="M 46.8106 87.0455L 57.2437 55.7466C 43.879 46.341 27.5845 40.8182 10 40.8182L 10 10C 35.2766 10 58.6148 18.2991 77.4384 32.3212L 113.583 20.2727L 101.4644 56.6292C 115.01 75.2644 123 98.1991 123 123L 92.1818 123C 92.1818 105.8201 86.9102 89.8715 77.8964 76.6834L 46.8106 87.0455Z"></path></g></g></g><g id="g-root-tx_backlogc_v48uo35v0h6s-fill" data-item-order="0" transform="translate(15, 57)"><g id="tx_backlogc_v48uo35v0h6s-fill" stroke="none" fill="#1eabda"><g><text style="font: bold 20px Roboto, sans-serif; white-space: pre;" font-weight="bold" font-size="20px" font-family="Roboto, sans-serif"><tspan x="20.02" y="34" dominant-baseline="ideographic">Backlog Creation and </tspan><tspan x="108.06" y="58" dominant-baseline="ideographic">Refinement</tspan></text></g></g></g><g id="g-root-tx_highfreq_zk2csj5v0gej-fill" data-item-order="0" transform="translate(303.08349609375, 51)"><g id="tx_highfreq_zk2csj5v0gej-fill" stroke="none" fill="#fd6a65"><g><text style="font: 15px Roboto, sans-serif; white-space: pre;" font-size="15px" font-family="Roboto, sans-serif"><tspan x="12.13" y="31" dominant-baseline="ideographic">High Frequency</tspan></text></g></g></g><g id="g-root-tx_dailysta_v649xf5v0g76-fill" data-item-order="0" transform="translate(495.1300048828125, 57)"><g id="tx_dailysta_v649xf5v0g76-fill" stroke="none" fill="#3cc583"><g><text style="font: bold 20px Roboto, sans-serif; white-space: pre;" font-weight="bold" font-size="20px" font-family="Roboto, sans-serif"><tspan x="12" y="34" dominant-baseline="ideographic">Daily Stand-up </tspan><tspan x="12" y="58" dominant-baseline="ideographic">Meetings</tspan></text></g></g></g><g id="g-root-tx_backlogc_htetdv5v0flx-fill" data-item-order="0" transform="translate(15, 117)"><g id="tx_backlogc_htetdv5v0flx-fill" stroke="none" fill="#4f92ff"><g><text style="font: 15px Roboto, sans-serif; white-space: pre;" font-size="15px" font-family="Roboto, sans-serif"><tspan x="71.77" y="31" dominant-baseline="ideographic">Backlog creation and </tspan><tspan x="53.66" y="49" dominant-baseline="ideographic">refinement involve high-</tspan><tspan x="17.66" y="67" dominant-baseline="ideographic">frequency task management.</tspan></text></g></g></g><g id="g-root-tx_dailysta_hunrk35v0hs3-fill" data-item-order="0" transform="translate(495.1300048828125, 117)"><g id="tx_dailysta_hunrk35v0hs3-fill" stroke="none" fill="#4f92ff"><g><text style="font: 15px Roboto, sans-serif; white-space: pre;" font-size="15px" font-family="Roboto, sans-serif"><tspan x="12" y="31" dominant-baseline="ideographic">Daily stand-up meetings </tspan><tspan x="12" y="49" dominant-baseline="ideographic">ensure high-frequency team </tspan><tspan x="12" y="67" dominant-baseline="ideographic">alignment.</tspan></text></g></g></g><g id="g-root-tx_taskmana_4g2vr75v0i6g-fill" data-item-order="0" transform="translate(63, 213)"><g id="tx_taskmana_4g2vr75v0i6g-fill" stroke="none" fill="#fd6a65"><g><text style="font: 15px Roboto, sans-serif; white-space: pre;" font-size="15px" font-family="Roboto, sans-serif"><tspan x="16.27" y="31" dominant-baseline="ideographic">Task Management</tspan></text></g></g></g><g id="g-root-tx_teamalig_1cuwe2r5v0hze-fill" data-item-order="0" transform="translate(519, 213)"><g id="tx_teamalig_1cuwe2r5v0hze-fill" stroke="none" fill="#fd6a65"><g><text style="font: 15px Roboto, sans-serif; white-space: pre;" font-size="15px" font-family="Roboto, sans-serif"><tspan x="12" y="31" dominant-baseline="ideographic">Team Alignment</tspan></text></g></g></g><g id="g-root-tx_retrospe_4hyb0j5v0h6u-fill" data-item-order="0" transform="translate(15, 285)"><g id="tx_retrospe_4hyb0j5v0h6u-fill" stroke="none" fill="#92bd39"><g><text style="font: bold 20px Roboto, sans-serif; white-space: pre;" font-weight="bold" font-size="20px" font-family="Roboto, sans-serif"><tspan x="77.42" y="34" dominant-baseline="ideographic">Retrospectives</tspan></text></g></g></g><g id="g-root-tx_asynchro_1cwrtc35v0gzs-fill" data-item-order="0" transform="translate(495.1300048828125, 273)"><g id="tx_asynchro_1cwrtc35v0gzs-fill" stroke="none" fill="#4e88e7"><g><text style="font: bold 20px Roboto, sans-serif; white-space: pre;" font-weight="bold" font-size="20px" font-family="Roboto, sans-serif"><tspan x="12" y="34" dominant-baseline="ideographic">Asynchronous </tspan><tspan x="12" y="58" dominant-baseline="ideographic">Updates</tspan></text></g></g></g><g id="g-root-tx_retrospe_1q88bpf5v0fev-fill" data-item-order="0" transform="translate(15, 321)"><g id="tx_retrospe_1q88bpf5v0fev-fill" stroke="none" fill="#4f92ff"><g><text style="font: 15px Roboto, sans-serif; white-space: pre;" font-size="15px" font-family="Roboto, sans-serif"><tspan x="19.75" y="31" dominant-baseline="ideographic">Retrospectives focus on low-</tspan><tspan x="21.61" y="49" dominant-baseline="ideographic">frequency task management </tspan><tspan x="155.39" y="67" dominant-baseline="ideographic">insights.</tspan></text></g></g></g><g id="g-root-tx_asynchro_zlxs1v5v0fex-fill" data-item-order="0" transform="translate(495.1300048828125, 333)"><g id="tx_asynchro_zlxs1v5v0fex-fill" stroke="none" fill="#4f92ff"><g><text style="font: 15px Roboto, sans-serif; white-space: pre;" font-size="15px" font-family="Roboto, sans-serif"><tspan x="12" y="31" dominant-baseline="ideographic">Asynchronous updates </tspan><tspan x="12" y="49" dominant-baseline="ideographic">facilitate low-frequency team </tspan><tspan x="12" y="67" dominant-baseline="ideographic">alignment.</tspan></text></g></g></g><g id="g-root-tx_lowfrequ_1q6cwg35v0geh-fill" data-item-order="0" transform="translate(303.08349609375, 375)"><g id="tx_lowfrequ_1q6cwg35v0geh-fill" stroke="none" fill="#fd6a65"><g><text style="font: 15px Roboto, sans-serif; white-space: pre;" font-size="15px" font-family="Roboto, sans-serif"><tspan x="13.7" y="31" dominant-baseline="ideographic">Low Frequency</tspan></text></g></g></g><g id="g-root-4.g-4_fr_1qegzer5vljwn-stroke" data-item-order="-287270" transform="translate(244, 112)"><g id="4.g-4_fr_1qegzer5vljwn-stroke" fill="none" stroke-linecap="round" stroke-linejoin="round" stroke-miterlimit="4" stroke="#484848" stroke-width="2"><g><path d="M 55.4232 76.2192L 87.9015 87.0455L 77.1488 54.7878C 90.246 45.9668 106.0217 40.8182 123 40.8182L 123 10C 97.9608 10 74.8238 18.144 56.0932 31.9277L 21.1288 20.2727L 32.7162 55.0346C 18.4551 73.9488 10 97.487 10 123L 40.8182 123C 40.8182 105.6181 46.2145 89.4965 55.4232 76.2192Z"></path></g></g></g><g id="g-root-3.g-3_fr_1lynhab5vlkox-stroke" data-item-order="-287266" transform="translate(244, 225)"><g id="3.g-3_fr_1lynhab5vlkox-stroke" fill="none" stroke-linecap="round" stroke-linejoin="round" stroke-miterlimit="4" stroke="#484848" stroke-width="2"><g><path d="M 87.9015 45.9545L 77.1488 78.2122C 90.246 87.0332 106.0217 92.1818 123 92.1818L 123 123C 97.9608 123 74.8238 114.856 56.0932 101.0723L 21.1288 112.7273L 32.7162 77.9654C 18.4551 59.0512 10 35.513 10 10L 40.8182 10C 40.8182 27.3819 46.2145 43.5035 55.4232 56.7808L 87.9015 45.9545Z"></path></g></g></g><g id="g-root-2.g-2_fr_18ntg035vlj43-stroke" data-item-order="-287262" transform="translate(357, 225)"><g id="2.g-2_fr_18ntg035vlj43-stroke" fill="none" stroke-linecap="round" stroke-linejoin="round" stroke-miterlimit="4" stroke="#484848" stroke-width="2"><g><path d="M 113.5833 112.7273L 101.4644 76.3708C 115.0103 57.7357 123 34.8009 123 10L 92.1818 10C 92.1818 27.1799 86.9102 43.1285 77.8964 56.3166L 46.8106 45.9545L 57.2437 77.2534C 43.879 86.659 27.5845 92.1818 10 92.1818L 10 123C 35.2766 123 58.6148 114.7009 77.4384 100.6788L 113.5833 112.7273Z"></path></g></g></g><g id="g-root-1.g-1_fr_zs6fr75vljwt-stroke" data-item-order="-287258" transform="translate(357, 112)"><g id="1.g-1_fr_zs6fr75vljwt-stroke" fill="none" stroke-linecap="round" stroke-linejoin="round" stroke-miterlimit="4" stroke="#484848" stroke-width="2"><g><path d="M 46.8106 87.0455L 57.2437 55.7466C 43.879 46.341 27.5845 40.8182 10 40.8182L 10 10C 35.2766 10 58.6148 18.2991 77.4384 32.3212L 113.5833 20.2727L 101.4644 56.6292C 115.0103 75.2644 123 98.1991 123 123L 92.1818 123C 92.1818 105.8201 86.9102 89.8715 77.8964 76.6834L 46.8106 87.0455Z"></path></g></g></g><g id="g-root-tx_backlogc_v48uo35v0h6s-stroke" data-item-order="0" transform="translate(15, 57)"></g><g id="g-root-tx_highfreq_zk2csj5v0gej-stroke" data-item-order="0" transform="translate(303.08349609375, 51)"></g><g id="g-root-tx_dailysta_v649xf5v0g76-stroke" data-item-order="0" transform="translate(495.1300048828125, 57)"></g><g id="g-root-tx_backlogc_htetdv5v0flx-stroke" data-item-order="0" transform="translate(15, 117)"></g><g id="g-root-tx_dailysta_hunrk35v0hs3-stroke" data-item-order="0" transform="translate(495.1300048828125, 117)"></g><g id="g-root-tx_taskmana_4g2vr75v0i6g-stroke" data-item-order="0" transform="translate(63, 213)"></g><g id="g-root-tx_teamalig_1cuwe2r5v0hze-stroke" data-item-order="0" transform="translate(519, 213)"></g><g id="g-root-tx_retrospe_4hyb0j5v0h6u-stroke" data-item-order="0" transform="translate(15, 285)"></g><g id="g-root-tx_asynchro_1cwrtc35v0gzs-stroke" data-item-order="0" transform="translate(495.1300048828125, 273)"></g><g id="g-root-tx_retrospe_1q88bpf5v0fev-stroke" data-item-order="0" transform="translate(15, 321)"></g><g id="g-root-tx_asynchro_zlxs1v5v0fex-stroke" data-item-order="0" transform="translate(495.1300048828125, 333)"></g><g id="g-root-tx_lowfrequ_1q6cwg35v0geh-stroke" data-item-order="0" transform="translate(303.08349609375, 375)"></g></g></g></svg>